<?xml version="1.0" standalone="no"?>
<svg xmlns:xlink="http://www.w3.org/1999/xlink" id="wave" style="transform:rotate(0deg); transition: 0.3s" viewBox="0 0 1440 240" version="1.1" xmlns="http://www.w3.org/2000/svg"><defs><linearGradient id="sw-gradient-0" x1="0" x2="0" y1="1" y2="0"><stop stop-color="rgba(240, 236, 207, 1)" offset="0%"/><stop stop-color="rgba(240, 236, 207, 1)" offset="100%"/></linearGradient></defs><path style="transform:translate(0, 0px); opacity:1" fill="url(#sw-gradient-0)" d="M0,72L60,96C120,120,240,168,360,180C480,192,600,168,720,132C840,96,960,48,1080,44C1200,40,1320,80,1440,116C1560,152,1680,184,1800,172C1920,160,2040,104,2160,88C2280,72,2400,96,2520,100C2640,104,2760,88,2880,76C3000,64,3120,56,3240,68C3360,80,3480,112,3600,136C3720,160,3840,176,3960,184C4080,192,4200,192,4320,192C4440,192,4560,192,4680,160C4800,128,4920,64,5040,40C5160,16,5280,32,5400,48C5520,64,5640,80,5760,80C5880,80,6000,64,6120,48C6240,32,6360,16,6480,32C6600,48,6720,96,6840,128C6960,160,7080,176,7200,164C7320,152,7440,112,7560,80C7680,48,7800,24,7920,12C8040,0,8160,0,8280,36C8400,72,8520,144,8580,180L8640,216L8640,240L8580,240C8520,240,8400,240,8280,240C8160,240,8040,240,7920,240C7800,240,7680,240,7560,240C7440,240,7320,240,7200,240C7080,240,6960,240,6840,240C6720,240,6600,240,6480,240C6360,240,6240,240,6120,240C6000,240,5880,240,5760,240C5640,240,5520,240,5400,240C5280,240,5160,240,5040,240C4920,240,4800,240,4680,240C4560,240,4440,240,4320,240C4200,240,4080,240,3960,240C3840,240,3720,240,3600,240C3480,240,3360,240,3240,240C3120,240,3000,240,2880,240C2760,240,2640,240,2520,240C2400,240,2280,240,2160,240C2040,240,1920,240,1800,240C1680,240,1560,240,1440,240C1320,240,1200,240,1080,240C960,240,840,240,720,240C600,240,480,240,360,240C240,240,120,240,60,240L0,240Z"/></svg>